<mxfile host="app.diagrams.net" modified="2023-08-27T10:07:46.778Z" agent="Mozilla/5.0 (Windows NT 10.0; Win64; x64) AppleWebKit/537.36 (KHTML, like Gecko) Chrome/116.0.0.0 Safari/537.36" etag="CoLOuXv5svUGHdxQFGZc" version="21.6.9" type="device">
  <diagram id="prtHgNgQTEPvFCAcTncT" name="Page-1">
    <mxGraphModel dx="2390" dy="2432" grid="1" gridSize="10" guides="1" tooltips="1" connect="1" arrows="1" fold="1" page="1" pageScale="1" pageWidth="827" pageHeight="1169" math="0" shadow="0">
      <root>
        <mxCell id="0" />
        <mxCell id="1" parent="0" />
        <mxCell id="SOtitx3wF4ypWhAWrLEX-14" style="edgeStyle=orthogonalEdgeStyle;rounded=0;orthogonalLoop=1;jettySize=auto;html=1;endArrow=none;endFill=0;" edge="1" parent="1" source="SOtitx3wF4ypWhAWrLEX-13">
          <mxGeometry relative="1" as="geometry">
            <mxPoint x="160" y="430" as="targetPoint" />
          </mxGeometry>
        </mxCell>
        <mxCell id="SOtitx3wF4ypWhAWrLEX-12" style="edgeStyle=orthogonalEdgeStyle;rounded=0;orthogonalLoop=1;jettySize=auto;html=1;endArrow=none;endFill=0;" edge="1" parent="1">
          <mxGeometry relative="1" as="geometry">
            <mxPoint x="409.97000000000014" y="629.86" as="sourcePoint" />
            <mxPoint x="160" y="630" as="targetPoint" />
            <Array as="points">
              <mxPoint x="234.97" y="629.86" />
              <mxPoint x="234.97" y="629.86" />
            </Array>
          </mxGeometry>
        </mxCell>
        <mxCell id="Ze6XWEk2cawwdiEBk8RI-1" value="" style="endArrow=none;html=1;rounded=0;" parent="1" edge="1">
          <mxGeometry width="50" height="50" relative="1" as="geometry">
            <mxPoint x="160" y="680" as="sourcePoint" />
            <mxPoint x="160" y="-760" as="targetPoint" />
          </mxGeometry>
        </mxCell>
        <mxCell id="Ze6XWEk2cawwdiEBk8RI-2" value="" style="endArrow=none;html=1;rounded=0;" parent="1" edge="1">
          <mxGeometry width="50" height="50" relative="1" as="geometry">
            <mxPoint x="160" y="680" as="sourcePoint" />
            <mxPoint x="1080" y="680" as="targetPoint" />
          </mxGeometry>
        </mxCell>
        <mxCell id="Ze6XWEk2cawwdiEBk8RI-3" value="&lt;font style=&quot;&quot;&gt;&lt;font style=&quot;font-size: 40px;&quot;&gt;&lt;b&gt;Costs&lt;/b&gt;&lt;/font&gt;&lt;br&gt;&lt;/font&gt;" style="text;html=1;align=center;verticalAlign=middle;resizable=0;points=[];autosize=1;strokeColor=none;fillColor=none;rotation=90;" parent="1" vertex="1">
          <mxGeometry x="-20" y="-150" width="130" height="60" as="geometry" />
        </mxCell>
        <mxCell id="SOtitx3wF4ypWhAWrLEX-9" style="edgeStyle=orthogonalEdgeStyle;rounded=0;orthogonalLoop=1;jettySize=auto;html=1;exitX=0;exitY=0.5;exitDx=0;exitDy=0;entryX=0.929;entryY=0.667;entryDx=0;entryDy=0;entryPerimeter=0;endArrow=none;endFill=0;" edge="1" parent="1">
          <mxGeometry relative="1" as="geometry">
            <mxPoint x="274.96999999999923" y="629.86" as="sourcePoint" />
            <mxPoint x="200.00000000000009" y="629.87" as="targetPoint" />
            <Array as="points">
              <mxPoint x="264.97" y="629.86" />
              <mxPoint x="264.97" y="629.86" />
            </Array>
          </mxGeometry>
        </mxCell>
        <mxCell id="Ze6XWEk2cawwdiEBk8RI-5" value="Personal Blog Creation" style="ellipse;whiteSpace=wrap;html=1;fontStyle=1" parent="1" vertex="1">
          <mxGeometry x="220" y="590" width="100" height="80" as="geometry" />
        </mxCell>
        <mxCell id="Ze6XWEk2cawwdiEBk8RI-17" value="₹10,000" style="text;html=1;align=center;verticalAlign=middle;resizable=0;points=[];autosize=1;strokeColor=none;fillColor=none;fontStyle=1" parent="1" vertex="1">
          <mxGeometry x="80" y="610" width="70" height="30" as="geometry" />
        </mxCell>
        <mxCell id="Ze6XWEk2cawwdiEBk8RI-18" value="₹20,000" style="text;html=1;align=center;verticalAlign=middle;resizable=0;points=[];autosize=1;strokeColor=none;fillColor=none;fontStyle=1" parent="1" vertex="1">
          <mxGeometry x="80" y="530" width="70" height="30" as="geometry" />
        </mxCell>
        <mxCell id="Ze6XWEk2cawwdiEBk8RI-19" value="₹30,000" style="text;html=1;align=center;verticalAlign=middle;resizable=0;points=[];autosize=1;strokeColor=none;fillColor=none;fontStyle=1" parent="1" vertex="1">
          <mxGeometry x="80" y="450" width="70" height="30" as="geometry" />
        </mxCell>
        <mxCell id="Ze6XWEk2cawwdiEBk8RI-20" value="₹40,000" style="text;html=1;align=center;verticalAlign=middle;resizable=0;points=[];autosize=1;strokeColor=none;fillColor=none;fontStyle=1" parent="1" vertex="1">
          <mxGeometry x="80" y="370" width="70" height="30" as="geometry" />
        </mxCell>
        <mxCell id="Ze6XWEk2cawwdiEBk8RI-21" value="₹50,000" style="text;html=1;align=center;verticalAlign=middle;resizable=0;points=[];autosize=1;strokeColor=none;fillColor=none;fontStyle=1" parent="1" vertex="1">
          <mxGeometry x="80" y="290" width="70" height="30" as="geometry" />
        </mxCell>
        <mxCell id="Ze6XWEk2cawwdiEBk8RI-22" value="₹60,000" style="text;html=1;align=center;verticalAlign=middle;resizable=0;points=[];autosize=1;strokeColor=none;fillColor=none;fontStyle=1" parent="1" vertex="1">
          <mxGeometry x="80" y="210" width="70" height="30" as="geometry" />
        </mxCell>
        <mxCell id="Ze6XWEk2cawwdiEBk8RI-23" value="₹100,000" style="text;html=1;align=center;verticalAlign=middle;resizable=0;points=[];autosize=1;strokeColor=none;fillColor=none;fontStyle=1" parent="1" vertex="1">
          <mxGeometry x="80" y="130" width="70" height="30" as="geometry" />
        </mxCell>
        <mxCell id="Ze6XWEk2cawwdiEBk8RI-24" value="₹200,000" style="text;html=1;align=center;verticalAlign=middle;resizable=0;points=[];autosize=1;strokeColor=none;fillColor=none;fontStyle=1" parent="1" vertex="1">
          <mxGeometry x="80" y="50" width="70" height="30" as="geometry" />
        </mxCell>
        <mxCell id="Ze6XWEk2cawwdiEBk8RI-25" value="₹300,000" style="text;html=1;align=center;verticalAlign=middle;resizable=0;points=[];autosize=1;strokeColor=none;fillColor=none;fontStyle=1" parent="1" vertex="1">
          <mxGeometry x="85" y="-30" width="70" height="30" as="geometry" />
        </mxCell>
        <mxCell id="Ze6XWEk2cawwdiEBk8RI-26" value="₹500,000" style="text;html=1;align=center;verticalAlign=middle;resizable=0;points=[];autosize=1;strokeColor=none;fillColor=none;fontStyle=1" parent="1" vertex="1">
          <mxGeometry x="80" y="-110" width="70" height="30" as="geometry" />
        </mxCell>
        <mxCell id="Ze6XWEk2cawwdiEBk8RI-27" value="₹1,000,000" style="text;html=1;align=center;verticalAlign=middle;resizable=0;points=[];autosize=1;strokeColor=none;fillColor=none;fontStyle=1" parent="1" vertex="1">
          <mxGeometry x="70" y="-350" width="80" height="30" as="geometry" />
        </mxCell>
        <mxCell id="Ze6XWEk2cawwdiEBk8RI-28" value="₹2,000,000" style="text;html=1;align=center;verticalAlign=middle;resizable=0;points=[];autosize=1;strokeColor=none;fillColor=none;fontStyle=1" parent="1" vertex="1">
          <mxGeometry x="70" y="-430" width="80" height="30" as="geometry" />
        </mxCell>
        <mxCell id="Ze6XWEk2cawwdiEBk8RI-29" value="₹700,000" style="text;html=1;align=center;verticalAlign=middle;resizable=0;points=[];autosize=1;strokeColor=none;fillColor=none;fontStyle=1" parent="1" vertex="1">
          <mxGeometry x="80" y="-190" width="70" height="30" as="geometry" />
        </mxCell>
        <mxCell id="Ze6XWEk2cawwdiEBk8RI-30" value="₹800,000" style="text;html=1;align=center;verticalAlign=middle;resizable=0;points=[];autosize=1;strokeColor=none;fillColor=none;fontStyle=1" parent="1" vertex="1">
          <mxGeometry x="80" y="-270" width="70" height="30" as="geometry" />
        </mxCell>
        <mxCell id="Ze6XWEk2cawwdiEBk8RI-31" value="₹3,000,000" style="text;html=1;align=center;verticalAlign=middle;resizable=0;points=[];autosize=1;strokeColor=none;fillColor=none;fontStyle=1" parent="1" vertex="1">
          <mxGeometry x="70" y="-510" width="80" height="30" as="geometry" />
        </mxCell>
        <mxCell id="Ze6XWEk2cawwdiEBk8RI-32" value="₹3,500,000" style="text;html=1;align=center;verticalAlign=middle;resizable=0;points=[];autosize=1;strokeColor=none;fillColor=none;fontStyle=1" parent="1" vertex="1">
          <mxGeometry x="70" y="-590" width="80" height="30" as="geometry" />
        </mxCell>
        <mxCell id="Ze6XWEk2cawwdiEBk8RI-33" value="₹5,000,000" style="text;html=1;align=center;verticalAlign=middle;resizable=0;points=[];autosize=1;strokeColor=none;fillColor=none;fontStyle=1" parent="1" vertex="1">
          <mxGeometry x="70" y="-670" width="80" height="30" as="geometry" />
        </mxCell>
        <mxCell id="Ze6XWEk2cawwdiEBk8RI-34" value="&lt;font style=&quot;&quot;&gt;&lt;font style=&quot;font-size: 40px;&quot;&gt;&lt;b&gt;Complexity&lt;/b&gt;&lt;/font&gt;&lt;br&gt;&lt;/font&gt;" style="text;html=1;align=center;verticalAlign=middle;resizable=0;points=[];autosize=1;strokeColor=none;fillColor=none;rotation=0;" parent="1" vertex="1">
          <mxGeometry x="465" y="730" width="240" height="60" as="geometry" />
        </mxCell>
        <mxCell id="SOtitx3wF4ypWhAWrLEX-1" value="Individual &lt;br style=&quot;font-size: 16px;&quot;&gt;Projects" style="text;html=1;align=center;verticalAlign=middle;resizable=0;points=[];autosize=1;strokeColor=none;fillColor=none;fontStyle=1;fontSize=16;" vertex="1" parent="1">
          <mxGeometry x="225" y="675" width="100" height="50" as="geometry" />
        </mxCell>
        <mxCell id="SOtitx3wF4ypWhAWrLEX-2" value="Group &lt;br style=&quot;font-size: 16px;&quot;&gt;Projects" style="text;html=1;align=center;verticalAlign=middle;resizable=0;points=[];autosize=1;strokeColor=none;fillColor=none;fontStyle=1;fontSize=16;" vertex="1" parent="1">
          <mxGeometry x="390" y="675" width="90" height="50" as="geometry" />
        </mxCell>
        <mxCell id="SOtitx3wF4ypWhAWrLEX-3" value="Organizational &lt;br style=&quot;font-size: 16px;&quot;&gt;Projects" style="text;html=1;align=center;verticalAlign=middle;resizable=0;points=[];autosize=1;strokeColor=none;fillColor=none;fontStyle=1;fontSize=16;" vertex="1" parent="1">
          <mxGeometry x="530" y="675" width="130" height="50" as="geometry" />
        </mxCell>
        <mxCell id="SOtitx3wF4ypWhAWrLEX-4" value="Multi-organizational &lt;br style=&quot;font-size: 16px;&quot;&gt;Projects" style="text;html=1;align=center;verticalAlign=middle;resizable=0;points=[];autosize=1;strokeColor=none;fillColor=none;fontStyle=1;fontSize=16;" vertex="1" parent="1">
          <mxGeometry x="685" y="675" width="170" height="50" as="geometry" />
        </mxCell>
        <mxCell id="SOtitx3wF4ypWhAWrLEX-5" value="Multi-Nation &lt;br style=&quot;font-size: 16px;&quot;&gt;Projects" style="text;html=1;align=center;verticalAlign=middle;resizable=0;points=[];autosize=1;strokeColor=none;fillColor=none;fontStyle=1;fontSize=16;" vertex="1" parent="1">
          <mxGeometry x="885" y="675" width="120" height="50" as="geometry" />
        </mxCell>
        <mxCell id="SOtitx3wF4ypWhAWrLEX-8" style="edgeStyle=orthogonalEdgeStyle;rounded=0;orthogonalLoop=1;jettySize=auto;html=1;endArrow=none;endFill=0;" edge="1" parent="1" source="SOtitx3wF4ypWhAWrLEX-6">
          <mxGeometry relative="1" as="geometry">
            <mxPoint x="160" y="520" as="targetPoint" />
          </mxGeometry>
        </mxCell>
        <mxCell id="SOtitx3wF4ypWhAWrLEX-40" style="edgeStyle=orthogonalEdgeStyle;rounded=0;orthogonalLoop=1;jettySize=auto;html=1;exitX=0.5;exitY=1;exitDx=0;exitDy=0;entryX=0.5;entryY=0;entryDx=0;entryDy=0;endArrow=none;endFill=0;fontStyle=1" edge="1" parent="1" source="SOtitx3wF4ypWhAWrLEX-6" target="Ze6XWEk2cawwdiEBk8RI-5">
          <mxGeometry relative="1" as="geometry" />
        </mxCell>
        <mxCell id="SOtitx3wF4ypWhAWrLEX-6" value="Home Garden Renovation" style="ellipse;whiteSpace=wrap;html=1;fontStyle=1" vertex="1" parent="1">
          <mxGeometry x="220" y="480" width="100" height="80" as="geometry" />
        </mxCell>
        <mxCell id="SOtitx3wF4ypWhAWrLEX-10" style="edgeStyle=orthogonalEdgeStyle;rounded=0;orthogonalLoop=1;jettySize=auto;html=1;endArrow=none;endFill=0;" edge="1" parent="1" source="SOtitx3wF4ypWhAWrLEX-7">
          <mxGeometry relative="1" as="geometry">
            <mxPoint x="160" y="430" as="targetPoint" />
          </mxGeometry>
        </mxCell>
        <mxCell id="SOtitx3wF4ypWhAWrLEX-7" value="Self-Published Book" style="ellipse;whiteSpace=wrap;html=1;fontStyle=1" vertex="1" parent="1">
          <mxGeometry x="220" y="390" width="100" height="80" as="geometry" />
        </mxCell>
        <mxCell id="SOtitx3wF4ypWhAWrLEX-11" value="Community Cleanup Drive" style="ellipse;whiteSpace=wrap;html=1;fontStyle=1" vertex="1" parent="1">
          <mxGeometry x="385" y="590" width="100" height="80" as="geometry" />
        </mxCell>
        <mxCell id="SOtitx3wF4ypWhAWrLEX-46" style="edgeStyle=orthogonalEdgeStyle;rounded=0;orthogonalLoop=1;jettySize=auto;html=1;entryX=0.501;entryY=-0.005;entryDx=0;entryDy=0;entryPerimeter=0;endArrow=none;endFill=0;fontStyle=1" edge="1" parent="1" source="SOtitx3wF4ypWhAWrLEX-13" target="SOtitx3wF4ypWhAWrLEX-11">
          <mxGeometry relative="1" as="geometry" />
        </mxCell>
        <mxCell id="SOtitx3wF4ypWhAWrLEX-13" value="School Science Fair" style="ellipse;whiteSpace=wrap;html=1;fontStyle=1" vertex="1" parent="1">
          <mxGeometry x="385" y="390" width="100" height="80" as="geometry" />
        </mxCell>
        <mxCell id="SOtitx3wF4ypWhAWrLEX-17" style="edgeStyle=orthogonalEdgeStyle;rounded=0;orthogonalLoop=1;jettySize=auto;html=1;endArrow=none;endFill=0;" edge="1" parent="1" source="SOtitx3wF4ypWhAWrLEX-15">
          <mxGeometry relative="1" as="geometry">
            <mxPoint x="160" y="305" as="targetPoint" />
          </mxGeometry>
        </mxCell>
        <mxCell id="SOtitx3wF4ypWhAWrLEX-48" style="edgeStyle=orthogonalEdgeStyle;rounded=0;orthogonalLoop=1;jettySize=auto;html=1;entryX=0.5;entryY=0;entryDx=0;entryDy=0;endArrow=none;endFill=0;fontStyle=1" edge="1" parent="1" source="SOtitx3wF4ypWhAWrLEX-15" target="SOtitx3wF4ypWhAWrLEX-13">
          <mxGeometry relative="1" as="geometry" />
        </mxCell>
        <mxCell id="SOtitx3wF4ypWhAWrLEX-15" value="Charity Fundraising &lt;br&gt;Event" style="ellipse;whiteSpace=wrap;html=1;fontStyle=1" vertex="1" parent="1">
          <mxGeometry x="385" y="265" width="100" height="80" as="geometry" />
        </mxCell>
        <mxCell id="SOtitx3wF4ypWhAWrLEX-19" style="edgeStyle=orthogonalEdgeStyle;rounded=0;orthogonalLoop=1;jettySize=auto;html=1;endArrow=none;endFill=0;" edge="1" parent="1" source="SOtitx3wF4ypWhAWrLEX-18">
          <mxGeometry relative="1" as="geometry">
            <mxPoint x="160" y="145" as="targetPoint" />
          </mxGeometry>
        </mxCell>
        <mxCell id="SOtitx3wF4ypWhAWrLEX-49" style="edgeStyle=orthogonalEdgeStyle;rounded=0;orthogonalLoop=1;jettySize=auto;html=1;endArrow=none;endFill=0;" edge="1" parent="1" source="SOtitx3wF4ypWhAWrLEX-18">
          <mxGeometry relative="1" as="geometry">
            <mxPoint x="595" y="680" as="targetPoint" />
          </mxGeometry>
        </mxCell>
        <mxCell id="SOtitx3wF4ypWhAWrLEX-18" value="Employee Training &lt;br&gt;Program" style="ellipse;whiteSpace=wrap;html=1;fontStyle=1" vertex="1" parent="1">
          <mxGeometry x="545" y="105" width="100" height="80" as="geometry" />
        </mxCell>
        <mxCell id="SOtitx3wF4ypWhAWrLEX-21" style="edgeStyle=orthogonalEdgeStyle;rounded=0;orthogonalLoop=1;jettySize=auto;html=1;endArrow=none;endFill=0;" edge="1" parent="1" source="SOtitx3wF4ypWhAWrLEX-20">
          <mxGeometry relative="1" as="geometry">
            <mxPoint x="160" y="-95" as="targetPoint" />
          </mxGeometry>
        </mxCell>
        <mxCell id="SOtitx3wF4ypWhAWrLEX-20" value="New Product Launch" style="ellipse;whiteSpace=wrap;html=1;fontStyle=1" vertex="1" parent="1">
          <mxGeometry x="545" y="-135" width="100" height="80" as="geometry" />
        </mxCell>
        <mxCell id="SOtitx3wF4ypWhAWrLEX-23" style="edgeStyle=orthogonalEdgeStyle;rounded=0;orthogonalLoop=1;jettySize=auto;html=1;endArrow=none;endFill=0;" edge="1" parent="1" source="SOtitx3wF4ypWhAWrLEX-22">
          <mxGeometry relative="1" as="geometry">
            <mxPoint x="160" y="-15" as="targetPoint" />
          </mxGeometry>
        </mxCell>
        <mxCell id="SOtitx3wF4ypWhAWrLEX-50" style="edgeStyle=orthogonalEdgeStyle;rounded=0;orthogonalLoop=1;jettySize=auto;html=1;entryX=0.5;entryY=0;entryDx=0;entryDy=0;endArrow=none;endFill=0;fontStyle=1" edge="1" parent="1" source="SOtitx3wF4ypWhAWrLEX-22" target="SOtitx3wF4ypWhAWrLEX-18">
          <mxGeometry relative="1" as="geometry" />
        </mxCell>
        <mxCell id="SOtitx3wF4ypWhAWrLEX-22" value="Office &lt;br&gt;Relocation" style="ellipse;whiteSpace=wrap;html=1;fontStyle=1" vertex="1" parent="1">
          <mxGeometry x="545" y="-55" width="100" height="80" as="geometry" />
        </mxCell>
        <mxCell id="SOtitx3wF4ypWhAWrLEX-25" style="edgeStyle=orthogonalEdgeStyle;rounded=0;orthogonalLoop=1;jettySize=auto;html=1;endArrow=none;endFill=0;" edge="1" parent="1" source="SOtitx3wF4ypWhAWrLEX-24">
          <mxGeometry relative="1" as="geometry">
            <mxPoint x="160" y="-335" as="targetPoint" />
          </mxGeometry>
        </mxCell>
        <mxCell id="SOtitx3wF4ypWhAWrLEX-24" value="Smart City Infrastructure Development" style="ellipse;whiteSpace=wrap;html=1;fontStyle=1" vertex="1" parent="1">
          <mxGeometry x="720" y="-375" width="100" height="80" as="geometry" />
        </mxCell>
        <mxCell id="SOtitx3wF4ypWhAWrLEX-27" style="edgeStyle=orthogonalEdgeStyle;rounded=0;orthogonalLoop=1;jettySize=auto;html=1;endArrow=none;endFill=0;" edge="1" parent="1" source="SOtitx3wF4ypWhAWrLEX-26">
          <mxGeometry relative="1" as="geometry">
            <mxPoint x="160" y="-255" as="targetPoint" />
          </mxGeometry>
        </mxCell>
        <mxCell id="SOtitx3wF4ypWhAWrLEX-26" value="Environmental Conservation Initiative" style="ellipse;whiteSpace=wrap;html=1;fontStyle=1" vertex="1" parent="1">
          <mxGeometry x="720" y="-295" width="100" height="80" as="geometry" />
        </mxCell>
        <mxCell id="SOtitx3wF4ypWhAWrLEX-29" style="edgeStyle=orthogonalEdgeStyle;rounded=0;orthogonalLoop=1;jettySize=auto;html=1;endArrow=none;endFill=0;" edge="1" parent="1" source="SOtitx3wF4ypWhAWrLEX-28">
          <mxGeometry relative="1" as="geometry">
            <mxPoint x="160" y="-175" as="targetPoint" />
          </mxGeometry>
        </mxCell>
        <mxCell id="SOtitx3wF4ypWhAWrLEX-51" style="edgeStyle=orthogonalEdgeStyle;rounded=0;orthogonalLoop=1;jettySize=auto;html=1;endArrow=none;endFill=0;entryX=0.5;entryY=0.1;entryDx=0;entryDy=0;entryPerimeter=0;" edge="1" parent="1" source="SOtitx3wF4ypWhAWrLEX-28" target="SOtitx3wF4ypWhAWrLEX-4">
          <mxGeometry relative="1" as="geometry" />
        </mxCell>
        <mxCell id="SOtitx3wF4ypWhAWrLEX-28" value="Industry Standards Development" style="ellipse;whiteSpace=wrap;html=1;fontStyle=1" vertex="1" parent="1">
          <mxGeometry x="720" y="-215" width="100" height="80" as="geometry" />
        </mxCell>
        <mxCell id="SOtitx3wF4ypWhAWrLEX-31" style="edgeStyle=orthogonalEdgeStyle;rounded=0;orthogonalLoop=1;jettySize=auto;html=1;endArrow=none;endFill=0;" edge="1" parent="1" source="SOtitx3wF4ypWhAWrLEX-30">
          <mxGeometry relative="1" as="geometry">
            <mxPoint x="160" y="-415" as="targetPoint" />
          </mxGeometry>
        </mxCell>
        <mxCell id="SOtitx3wF4ypWhAWrLEX-52" style="edgeStyle=orthogonalEdgeStyle;rounded=0;orthogonalLoop=1;jettySize=auto;html=1;endArrow=none;endFill=0;entryX=0.5;entryY=0.1;entryDx=0;entryDy=0;entryPerimeter=0;" edge="1" parent="1" source="SOtitx3wF4ypWhAWrLEX-30" target="SOtitx3wF4ypWhAWrLEX-5">
          <mxGeometry relative="1" as="geometry" />
        </mxCell>
        <mxCell id="SOtitx3wF4ypWhAWrLEX-30" value="International Space Station (ISS) Module" style="ellipse;whiteSpace=wrap;html=1;fontStyle=1" vertex="1" parent="1">
          <mxGeometry x="895" y="-455" width="100" height="80" as="geometry" />
        </mxCell>
        <mxCell id="SOtitx3wF4ypWhAWrLEX-33" style="edgeStyle=orthogonalEdgeStyle;rounded=0;orthogonalLoop=1;jettySize=auto;html=1;endArrow=none;endFill=0;" edge="1" parent="1" source="SOtitx3wF4ypWhAWrLEX-32">
          <mxGeometry relative="1" as="geometry">
            <mxPoint x="160" y="-655" as="targetPoint" />
          </mxGeometry>
        </mxCell>
        <mxCell id="SOtitx3wF4ypWhAWrLEX-32" value="Global Vaccination Campaign" style="ellipse;whiteSpace=wrap;html=1;fontStyle=1" vertex="1" parent="1">
          <mxGeometry x="895" y="-695" width="100" height="80" as="geometry" />
        </mxCell>
        <mxCell id="SOtitx3wF4ypWhAWrLEX-35" style="edgeStyle=orthogonalEdgeStyle;rounded=0;orthogonalLoop=1;jettySize=auto;html=1;endArrow=none;endFill=0;" edge="1" parent="1" source="SOtitx3wF4ypWhAWrLEX-34">
          <mxGeometry relative="1" as="geometry">
            <mxPoint x="160" y="-575" as="targetPoint" />
          </mxGeometry>
        </mxCell>
        <mxCell id="SOtitx3wF4ypWhAWrLEX-53" style="edgeStyle=orthogonalEdgeStyle;rounded=0;orthogonalLoop=1;jettySize=auto;html=1;endArrow=none;endFill=0;fontStyle=1" edge="1" parent="1" source="SOtitx3wF4ypWhAWrLEX-34" target="SOtitx3wF4ypWhAWrLEX-30">
          <mxGeometry relative="1" as="geometry" />
        </mxCell>
        <mxCell id="SOtitx3wF4ypWhAWrLEX-34" value="Climate Change Research Consortium" style="ellipse;whiteSpace=wrap;html=1;fontStyle=1" vertex="1" parent="1">
          <mxGeometry x="895" y="-615" width="100" height="80" as="geometry" />
        </mxCell>
        <mxCell id="SOtitx3wF4ypWhAWrLEX-39" value="" style="endArrow=none;html=1;rounded=0;exitX=0.428;exitY=0.008;exitDx=0;exitDy=0;exitPerimeter=0;entryX=0.5;entryY=1;entryDx=0;entryDy=0;" edge="1" parent="1" source="SOtitx3wF4ypWhAWrLEX-1" target="Ze6XWEk2cawwdiEBk8RI-5">
          <mxGeometry width="50" height="50" relative="1" as="geometry">
            <mxPoint x="265" y="680" as="sourcePoint" />
            <mxPoint x="275" y="670" as="targetPoint" />
          </mxGeometry>
        </mxCell>
        <mxCell id="SOtitx3wF4ypWhAWrLEX-43" value="" style="endArrow=none;html=1;rounded=0;exitX=0.428;exitY=0.008;exitDx=0;exitDy=0;exitPerimeter=0;entryX=0.5;entryY=1;entryDx=0;entryDy=0;fontStyle=1" edge="1" parent="1">
          <mxGeometry width="50" height="50" relative="1" as="geometry">
            <mxPoint x="269.92" y="480" as="sourcePoint" />
            <mxPoint x="269.92" y="470" as="targetPoint" />
          </mxGeometry>
        </mxCell>
        <mxCell id="SOtitx3wF4ypWhAWrLEX-45" value="" style="endArrow=none;html=1;rounded=0;exitX=0.428;exitY=0.008;exitDx=0;exitDy=0;exitPerimeter=0;entryX=0.5;entryY=1;entryDx=0;entryDy=0;" edge="1" parent="1">
          <mxGeometry width="50" height="50" relative="1" as="geometry">
            <mxPoint x="434.89" y="680" as="sourcePoint" />
            <mxPoint x="434.89" y="670" as="targetPoint" />
          </mxGeometry>
        </mxCell>
      </root>
    </mxGraphModel>
  </diagram>
</mxfile>
